<svg width="147" height="20" fill="none" xmlns="http://www.w3.org/2000/svg"><path d="M83.635 19.384c-.535 0-.979-.177-1.33-.529-.353-.359-.523-.796-.523-1.325 0-.528.17-.972.522-1.325.352-.352.796-.528 1.331-.528.32 0 .62.072.895.228.274.15.489.353.646.614l-.79.45a.724.724 0 00-.3-.294.887.887 0 00-.45-.11c-.288 0-.516.084-.692.267a.972.972 0 00-.261.698c0 .287.091.522.26.699a.935.935 0 00.692.267.96.96 0 00.45-.11.74.74 0 00.301-.301l.79.457a1.67 1.67 0 01-.646.613c-.275.15-.568.229-.895.229zm11.637-.535a1.827 1.827 0 01-1.325.535c-.522 0-.96-.183-1.318-.535a1.768 1.768 0 01-.542-1.319c0-.522.176-.96.542-1.318a1.787 1.787 0 011.318-.535c.522 0 .966.176 1.325.535.359.359.542.796.542 1.318s-.183.96-.542 1.319zm-2.01-.627a.93.93 0 00.685.274.934.934 0 00.96-.966.924.924 0 00-.275-.692.93.93 0 00-.685-.274.93.93 0 00-.685.274.924.924 0 00-.274.692c0 .28.091.51.274.692zm13.405-2.474v3.557h-.901v-1.912l-.868 1.423h-.091l-.855-1.416v1.905h-.914V15.75h.914l.901 1.52.913-1.52h.901zm8.752 0c.359 0 .659.118.907.353.242.235.366.535.366.894 0 .366-.124.66-.366.894a1.266 1.266 0 01-.907.353h-.47v1.063h-.914V15.75h1.384zm0 1.626a.325.325 0 00.254-.105.369.369 0 00.105-.274.368.368 0 00-.105-.274.348.348 0 00-.254-.104h-.47v.757h.47zm10.318 1.931l-.176-.509h-1.208l-.15.51h-.985l1.129-3.558h1.149l1.174 3.557h-.933zm-1.149-1.292h.718l-.365-1.214-.353 1.214zm11.108-2.265h.901v3.557h-.698l-1.253-1.788v1.788h-.908V15.75h.705l1.253 1.788V15.75zm11.304 0l-1.201 2.193v1.364h-.907v-1.357l-1.201-2.2h1.018l.633 1.319.633-1.319H147z" fill="#2B2A28"/><path fill-rule="evenodd" clip-rule="evenodd" d="M101.929.04l9.829 10.996h-3.727L98.202.039h3.727zm10.958 0l9.828 10.996h-3.72L109.167.039h3.72zm10.99 0l9.829 10.996h-3.727L120.151.039h3.726z" fill="#CB8734"/><path fill-rule="evenodd" clip-rule="evenodd" d="M140.93 7.277l3.355 3.76h-2.996l-3.361-3.76-2.421-2.67h7.525a.98.98 0 00.979-.972.985.985 0 00-.979-.972h-9.052L131.311 0h11.721a3.65 3.65 0 013.642 3.635 3.652 3.652 0 01-3.642 3.642h-2.102zM0 .039h17.764v2.663h-7.55v8.334H7.55V2.702H0V.039zm31.32 0h8.628c2.865 0 5.208 2.343 5.208 5.202v.587c0 2.865-2.343 5.208-5.208 5.208H31.32c-2.865 0-5.208-2.343-5.208-5.208v-.587c0-2.859 2.343-5.202 5.208-5.202zm0 2.663h8.628a2.546 2.546 0 012.539 2.539v.587a2.546 2.546 0 01-2.54 2.539H31.32a2.546 2.546 0 01-2.539-2.539v-.587a2.546 2.546 0 012.54-2.54zM57.817.039v5.907l.052-.06L67.013.04h4.77l-7.348 4.588 9.104 6.41h-4.823l-6.866-4.8-4.033 2.52v2.277h-2.67V.04h2.67zm32.73.02l10.051 10.977H88.106l2.663-2.67h3.772l-3.968-4.34-6.402 7.01h-3.446L90.547.06z" fill="#2B2A28"/></svg>