<svg width="26" height="26" fill="none" xmlns="http://www.w3.org/2000/svg"><path d="M24.38 15.143a.393.393 0 00.67-.278v-1.018a.393.393 0 00-.786 0v1.018c0 .104.042.204.115.278z" fill="#2B2A28" stroke="#2B2A28" stroke-width=".1"/><path d="M2.371 25.05H23.63a1.422 1.422 0 001.421-1.421v-6.364a.393.393 0 00-.786 0v6.364a.636.636 0 01-.635.635H2.37a.636.636 0 01-.635-.635V2.37a.636.636 0 01.635-.635h21.26a.636.636 0 01.635.635v5.68a.393.393 0 00.786 0V2.371A1.422 1.422 0 0023.629.95H2.37A1.421 1.421 0 00.95 2.371V23.63a1.421 1.421 0 001.421 1.421z" fill="#2B2A28" stroke="#2B2A28" stroke-width=".1"/><path d="M24.38 11.725a.393.393 0 00.67-.278v-.998a.393.393 0 00-.786 0v.998c0 .104.042.204.115.278z" fill="#2B2A28" stroke="#2B2A28" stroke-width=".1"/><mask id="path-4-outside-1" maskUnits="userSpaceOnUse" x="12.586" y="4.095" width="11.314" height="11.314" fill="#000"><path fill="#fff" d="M12.586 4.095H23.9v11.314H12.586z"/><path fill-rule="evenodd" clip-rule="evenodd" d="M20.997 8.073a.343.343 0 00.243-.585l-2.246-2.246a.343.343 0 00-.485 0l-2.245 2.246a.343.343 0 00.485.485l1.66-1.66v7.706a.344.344 0 00.585.242.343.343 0 00.1-.242V6.312l1.661 1.66a.34.34 0 00.242.101z"/></mask><path fill-rule="evenodd" clip-rule="evenodd" d="M20.997 8.073a.343.343 0 00.243-.585l-2.246-2.246a.343.343 0 00-.485 0l-2.245 2.246a.343.343 0 00.485.485l1.66-1.66v7.706a.344.344 0 00.585.242.343.343 0 00.1-.242V6.312l1.661 1.66a.34.34 0 00.242.101z" fill="#2B2A28"/><path d="M21.34 7.73h-.1.1zm-2.588-2.588v.1-.1zm-2.246 2.931v-.1.1zm.242-.1l.071.07-.07-.07zm1.66-1.66h.1V6.07l-.17.17.07.072zm0 7.706h-.1.1zm.059.19l.083-.055-.083.055zm.154.126l-.039.093.039-.093zm.198.02l-.02-.098.02.098zm.175-.094l.07.07-.07-.07zm.1-.242h-.1.1zm0-7.707l.071-.07-.17-.17v.24h.1zm1.661 1.66l-.07.072.07-.071zm.414-.07a.243.243 0 01-.172.071v.2c.118 0 .23-.046.314-.13l-.142-.14zm.071-.171a.243.243 0 01-.07.171l.14.142a.443.443 0 00.13-.313h-.2zm-.07-.172a.243.243 0 01.07.172h.2a.443.443 0 00-.13-.314l-.14.142zm-2.247-2.246L21.17 7.56l.142-.142-2.246-2.245-.142.141zm-.171-.071c.064 0 .126.026.172.071l.14-.141a.443.443 0 00-.312-.13v.2zm-.172.071a.243.243 0 01.172-.071v-.2a.443.443 0 00-.313.13l.141.141zM16.334 7.56l2.246-2.246-.141-.141-2.246 2.245.141.142zm-.07.172c0-.065.025-.127.07-.172l-.141-.142a.443.443 0 00-.13.314h.2zm.07.171a.243.243 0 01-.07-.171h-.2c0 .117.046.23.129.313l.141-.142zm.172.071a.243.243 0 01-.172-.07l-.141.14a.44.44 0 00.313.13v-.2zm.172-.07a.243.243 0 01-.172.07v.2a.44.44 0 00.313-.13l-.141-.14zm1.66-1.661l-1.66 1.66.141.142 1.66-1.66-.14-.142zm.17 7.777V6.313h-.2v7.706h.2zm.042.135a.243.243 0 01-.041-.135h-.2c0 .087.026.173.075.246l.166-.111zm.109.089a.243.243 0 01-.11-.09l-.165.112c.048.072.117.13.198.163l.077-.185zm.14.014a.242.242 0 01-.14-.014l-.077.185c.081.033.17.042.256.025l-.039-.196zm.125-.067a.243.243 0 01-.125.067l.04.196a.443.443 0 00.226-.121l-.142-.142zm.07-.171a.243.243 0 01-.07.171l.14.142a.443.443 0 00.13-.313h-.2zm0-7.707v7.707h.2V6.312h-.2zm1.832 1.59l-1.66-1.66-.142.141 1.66 1.66.142-.14zm.171.071a.243.243 0 01-.171-.07l-.142.14a.44.44 0 00.313.13v-.2z" fill="#2B2A28" mask="url(#path-4-outside-1)"/><mask id="path-6-outside-2" maskUnits="userSpaceOnUse" x="3.815" y="12.586" width="11.314" height="11.314" fill="#000"><path fill="#fff" d="M3.815 12.586h11.314V23.9H3.815z"/><path fill-rule="evenodd" clip-rule="evenodd" d="M4.966 18.991a.343.343 0 01-.094-.175l.094.175zm-.094-.175a.343.343 0 01-.007-.063l.007.063zm-.007-.063v-.004.004zm0-.004c0-.02.002-.04.005-.059l-.005.059zm.005-.059a.349.349 0 01.004-.018l-.004.018zm.004-.018a.342.342 0 01.018-.054l-.018.054zm.018-.054a.323.323 0 01.01-.023l-.01.023zm.01-.023a.344.344 0 01.064-.089l-.064.088zm.064-.089l2.246-2.245a.343.343 0 11.484.485l-1.66 1.66h7.706a.343.343 0 010 .686H6.036l1.66 1.66a.343.343 0 01-.484.485L4.966 18.99"/></mask><path fill-rule="evenodd" clip-rule="evenodd" d="M4.966 18.991a.343.343 0 01-.094-.175l.094.175zm-.094-.175a.343.343 0 01-.007-.063l.007.063zm-.007-.063v-.004.004zm0-.004c0-.02.002-.04.005-.059l-.005.059zm.005-.059a.349.349 0 01.004-.018l-.004.018zm.004-.018a.342.342 0 01.018-.054l-.018.054zm.018-.054a.323.323 0 01.01-.023l-.01.023zm.01-.023a.344.344 0 01.064-.089l-.064.088zm.064-.089l2.246-2.245a.343.343 0 11.484.485l-1.66 1.66h7.706a.343.343 0 010 .686H6.036l1.66 1.66a.343.343 0 01-.484.485L4.966 18.99" fill="#2B2A28"/><path d="M4.872 18.816l-.05.005.001.01.005.008.044-.023zm-.007-.063h-.05v.005l.05-.005zm0-.004l-.05-.005v.005h.05zm.005-.059l-.049-.01v.006l.05.004zm.004-.018l-.048-.015v.005l.048.01zm.018-.054l-.046-.021-.002.005.048.016zm.01-.023l-.041-.03-.004.009.045.02zm.108.373l-.094-.176-.088.047.094.176.088-.047zm-.088-.158l-.007-.062-.1.01.007.063.1-.01zm-.007-.057v-.005l-.1.001v.004h.1zm0 0l.005-.058-.1-.01-.004.06.1.008zm.004-.053l.004-.018-.098-.02-.004.018.098.02zm.003-.013l.017-.054-.095-.03-.018.054.096.03zm.015-.049l.01-.023-.09-.041-.011.023.091.041zm.006-.014l.063-.088-.08-.059-.064.088.08.059zm.073.367v-.485h-.1v.485h.1zm-.144-.175l-.098.02.098-.02zm-.007-.063l-.1.001.1-.001zm0-.004h-.1.1zm.005-.059l-.098-.017.098.017zm.004-.018l.098.022-.098-.022zm.018-.054l-.093-.039.093.039zm.01-.023l.09.045-.09-.046zm2.31-2.334l-.071-.071.07.07zm.11-.075l.039.093-.038-.093zm.132-.026v.1-.1zm.131.026l.038-.092-.038.092zm.186.186l.092-.038-.092.038zm0 .262l-.093-.038.093.038zm-1.735 1.772l-.07-.07-.171.17h.241v-.1zm7.706 0l.002-.1h-.002v.1zm.337.343h.1-.1zm-.337.343v.1h.002l-.002-.1zm-7.706 0v-.1h-.242l.171.17.07-.07zm1.66 1.66l-.07.07.07-.07zm-.242.585v-.1.1zm-2.417-2.416a.243.243 0 01-.067-.125l-.196.04a.45.45 0 00.121.226l.142-.142zm-.067-.125a.242.242 0 01-.005-.044l-.2.002c0 .027.004.054.009.081l.196-.039zm-.005-.044v-.003h-.2a.45.45 0 000 .005l.2-.002zm0-.003c0-.014.002-.028.004-.042l-.197-.034a.443.443 0 00-.007.076h.2zm.004-.042l.003-.013-.195-.044a.458.458 0 00-.005.023l.197.034zm.003-.013a.247.247 0 01.012-.038l-.185-.077a.44.44 0 00-.022.07l.195.045zm.012-.038a.245.245 0 01.007-.016l-.178-.09a.465.465 0 00-.014.03l.185.076zm.007-.016a.243.243 0 01.046-.063l-.142-.141a.444.444 0 00-.082.113l.178.09zm.046-.063l2.245-2.246-.141-.141-2.246 2.246.142.141zm2.245-2.246a.242.242 0 01.079-.052l-.077-.185a.444.444 0 00-.143.096l.141.141zm.079-.052a.243.243 0 01.093-.019v-.2a.444.444 0 00-.17.034l.077.185zm.093-.019c.032 0 .063.006.093.019l.076-.185a.444.444 0 00-.17-.034v.2zm.093.019c.03.012.056.03.079.052l.141-.141a.444.444 0 00-.144-.096l-.076.185zm.079.052c.022.023.04.05.052.08l.185-.077a.444.444 0 00-.096-.144l-.141.141zm.052.08c.013.029.019.06.019.092h.2a.443.443 0 00-.034-.17l-.185.077zm.019.092a.242.242 0 01-.019.093l.185.077a.443.443 0 00.034-.17h-.2zm-.019.093a.242.242 0 01-.052.079l.141.141a.443.443 0 00.096-.143l-.185-.077zm-.052.079l-1.66 1.66.14.142 1.661-1.66-.141-.142zm-1.59 1.83h7.706v-.2H6.036v.2zm7.704 0a.243.243 0 01.17.073l.142-.14a.443.443 0 00-.308-.132l-.004.2zm.17.073a.247.247 0 01.069.17h.2a.443.443 0 00-.127-.31l-.143.14zm.069.17a.243.243 0 01-.07.171l.143.14a.443.443 0 00.127-.31h-.2zm-.07.171a.243.243 0 01-.169.072l.004.2a.443.443 0 00.308-.132l-.143-.14zm-.167.072H6.036v.2h7.706v-.2zm-7.777.171l1.66 1.66.142-.14-1.66-1.661-.142.141zm1.66 1.66a.243.243 0 01.072.172h.2a.443.443 0 00-.13-.313l-.141.142zm.072.172a.243.243 0 01-.071.172l.141.142a.443.443 0 00.13-.314h-.2zm-.071.172a.243.243 0 01-.172.071v.2a.44.44 0 00.313-.13l-.141-.14zm-.172.071a.243.243 0 01-.172-.07l-.141.14a.44.44 0 00.313.13v-.2zm-.172-.07L5.037 18.92l-.142.142 2.246 2.246.141-.142z" fill="#2B2A28" mask="url(#path-6-outside-2)"/></svg>