<svg width="26" height="26" fill="none" xmlns="http://www.w3.org/2000/svg"><path d="M24.38 15.143a.393.393 0 00.67-.278v-1.018a.393.393 0 00-.786 0v1.018c0 .104.042.204.115.278z" fill="#2B2A28" stroke="#2B2A28" stroke-width=".1"/><path d="M2.371 25.05H23.63a1.422 1.422 0 001.421-1.421v-6.364a.393.393 0 00-.786 0v6.364a.636.636 0 01-.635.635H2.37a.636.636 0 01-.635-.635V2.37a.636.636 0 01.635-.635h21.26a.636.636 0 01.635.635v5.68a.393.393 0 00.786 0V2.371A1.422 1.422 0 0023.629.95H2.37A1.421 1.421 0 00.95 2.371V23.63a1.421 1.421 0 001.421 1.421z" fill="#2B2A28" stroke="#2B2A28" stroke-width=".1"/><path d="M24.38 11.725a.393.393 0 00.67-.278v-.998a.393.393 0 00-.786 0v.998c0 .104.042.204.115.278zm-10.15-.511h0a.394.394 0 00.278.67h0a.393.393 0 00.278-.115s0 0 0 0l6.035-6.034h0a.393.393 0 00-.555-.556h0l-6.035 6.035z" fill="#2B2A28" stroke="#2B2A28" stroke-width=".1"/><path d="M20.265 8.91a.393.393 0 00.67-.277V5.457a.393.393 0 00-.392-.393h-3.176a.393.393 0 000 .786h2.783v2.783c0 .104.041.204.115.278zM5.18 20.265h0a.393.393 0 00.277.67h0a.393.393 0 00.278-.114s0 0 0 0l6.034-6.035h0a.393.393 0 00-.555-.556h0l-6.035 6.035z" fill="#2B2A28" stroke="#2B2A28" stroke-width=".1"/><path d="M5.457 20.936h3.176a.393.393 0 000-.786H5.85v-2.783a.393.393 0 00-.786 0v3.176a.393.393 0 00.393.393z" fill="#2B2A28" stroke="#2B2A28" stroke-width=".1"/></svg>