<svg width="46" height="46" fill="none" xmlns="http://www.w3.org/2000/svg"><rect width="46" height="46" rx="22.954" fill="#419FD9"/><path fill-rule="evenodd" clip-rule="evenodd" d="M26.718 31.535c1.202.526 1.652-.575 1.652-.575l3.178-15.965c-.025-1.076-1.476-.425-1.476-.425L12.28 21.55s-.85.3-.775.826c.075.526.75.776.75.776l4.48 1.501s1.35 4.43 1.626 5.28c.25.826.475.85.475.85.25.1.476-.074.476-.074l2.902-2.628 4.505 3.453zm.777-13.712s.625-.375.6 0c0 0 .1.05-.225.4-.3.3-7.382 6.656-8.332 7.507a.263.263 0 00-.126.225l-.275 2.352c-.05.25-.375.276-.45.05l-1.176-3.853a.37.37 0 01.15-.426l9.834-6.255z" fill="#fff"/></svg>