<svg width="47" height="46" fill="none" xmlns="http://www.w3.org/2000/svg"><rect x=".154" width="46" height="46" rx="22.954" fill="#675DA9"/><path d="M31.373 14.568c-.556-.51-2.803-2.145-7.813-2.167 0 0-5.905-.358-8.784 2.283-1.603 1.603-2.167 3.945-2.225 6.855-.058 2.905-.135 8.354 5.117 9.831h.005l-.005 2.253s-.031.913.569 1.096c.725.224 1.155-.47 1.849-1.217.38-.412.904-1.012 1.303-1.473 3.59.3 6.353-.39 6.666-.493.725-.237 4.83-.761 5.498-6.21.69-5.605-.336-9.155-2.18-10.758zm.608 10.364c-.564 4.55-3.89 4.836-4.503 5.033-.26.085-2.687.69-5.74.488 0 0-2.274 2.744-2.982 3.456-.112.112-.242.157-.327.134-.12-.031-.156-.174-.152-.385 0-.304.018-3.747.018-3.747-.005 0-.005 0 0 0-4.446-1.231-4.186-5.87-4.137-8.296.05-2.427.506-4.42 1.863-5.758 2.43-2.202 7.45-1.876 7.45-1.876 4.235.018 6.263 1.294 6.733 1.72 1.563 1.343 2.36 4.544 1.777 9.231z" fill="#fff"/><path d="M25.624 21.7a.284.284 0 01-.282-.269c-.049-.962-.501-1.432-1.423-1.482a.285.285 0 01.03-.568c1.219.067 1.9.765 1.962 2.019a.278.278 0 01-.269.296c-.009.004-.013.004-.018.004z" fill="#fff"/><path d="M27.076 22.183h-.005a.285.285 0 01-.277-.29c.022-.968-.256-1.751-.847-2.396-.586-.644-1.396-.994-2.466-1.07a.282.282 0 01-.26-.304.282.282 0 01.304-.26c1.209.09 2.163.51 2.843 1.254.685.747 1.017 1.683.994 2.789a.287.287 0 01-.286.277z" fill="#fff"/><path d="M28.561 22.765a.281.281 0 01-.282-.282c-.013-1.732-.51-3.053-1.522-4.043-.998-.976-2.265-1.473-3.756-1.486a.285.285 0 010-.569c1.643.014 3.04.565 4.146 1.648 1.11 1.083 1.679 2.579 1.697 4.441a.28.28 0 01-.283.291c.005 0 .005 0 0 0zm-4.575 2.441s.398.035.613-.229l.416-.524c.202-.26.69-.425 1.165-.16.264.147.743.442 1.038.662.318.233.963.77.967.774.31.26.38.64.17 1.048v.009a4.34 4.34 0 01-.868 1.07c-.005 0-.005.004-.009.004-.3.251-.596.394-.882.426-.036.009-.076.009-.13.009a1.22 1.22 0 01-.376-.059l-.009-.013c-.448-.125-1.19-.439-2.427-1.124a14.405 14.405 0 01-2.041-1.347 10.73 10.73 0 01-.918-.815l-.031-.031-.032-.032-.03-.031a11.223 11.223 0 01-.846-.95 14.155 14.155 0 01-1.349-2.04c-.685-1.241-.998-1.984-1.123-2.427l-.014-.01a1.22 1.22 0 01-.058-.375c0-.054 0-.095.009-.13.036-.291.179-.582.425-.882 0-.005.005-.005.005-.01.331-.366.69-.653 1.07-.868h.009c.403-.21.783-.139 1.047.17 0 0 .542.65.775.967.22.3.515.775.663 1.04.264.474.098.962-.162 1.163l-.524.416c-.264.215-.228.614-.228.614s.775 2.946 3.685 3.684z" fill="#fff"/></svg>