<svg width="47" height="46" fill="none" xmlns="http://www.w3.org/2000/svg"><rect x=".077" width="46" height="46" rx="22.954" fill="#0DC143"/><path d="M31.395 14.717c-2.042-2.085-4.865-3.217-7.748-3.217-6.126 0-11.05 4.945-10.99 10.961 0 1.907.54 3.753 1.44 5.421l-1.56 5.66 5.825-1.49c1.622.894 3.423 1.311 5.225 1.311 6.066 0 10.99-4.944 10.99-10.961 0-2.92-1.14-5.66-3.182-7.685zm-7.748 16.8c-1.621 0-3.243-.418-4.624-1.252l-.36-.178-3.484.893.9-3.396-.24-.357c-2.642-4.23-1.381-9.83 2.943-12.45 4.325-2.622 9.91-1.37 12.553 2.918 2.642 4.29 1.381 9.83-2.943 12.451-1.382.894-3.063 1.37-4.745 1.37zm5.285-6.613l-.66-.298s-.961-.417-1.562-.715c-.06 0-.12-.06-.18-.06-.18 0-.3.06-.42.12 0 0-.06.06-.901 1.012a.33.33 0 01-.3.179h-.06c-.06 0-.18-.06-.241-.12l-.3-.118c-.66-.298-1.261-.656-1.742-1.132-.12-.12-.3-.238-.42-.358-.42-.417-.841-.893-1.142-1.43l-.06-.119c-.06-.059-.06-.119-.12-.238 0-.119 0-.238.06-.298 0 0 .24-.297.42-.476.12-.12.18-.298.301-.417.12-.179.18-.417.12-.596-.06-.298-.78-1.906-.96-2.264-.12-.178-.241-.238-.421-.297h-.66c-.121 0-.241.06-.361.06l-.06.059c-.12.06-.24.178-.36.238-.12.12-.18.238-.3.357a3.023 3.023 0 00-.662 1.847c0 .477.12.953.3 1.37l.06.179a9.926 9.926 0 002.223 3.038l.24.238c.18.18.36.298.48.477 1.262 1.072 2.703 1.847 4.325 2.264.18.06.42.06.6.119h.601c.3 0 .66-.12.901-.238.18-.12.3-.12.42-.239l.12-.119c.12-.119.24-.178.36-.298.121-.119.241-.238.301-.357.12-.238.18-.536.24-.834v-.417s-.06-.06-.18-.12z" fill="#fff"/></svg>