<svg width="62" height="63" fill="none" xmlns="http://www.w3.org/2000/svg"><path opacity=".58" fill="#fff" d="M0 0h62v62H0z"/><path d="M21.964 45.563l.014.004.014.001c5.645.512 10.084 5.27 10.084 11.047v5.174a1.06 1.06 0 01-1.06 1.061H1.21a1.06 1.06 0 01-1.06-1.061v-5.174c0-5.776 4.439-10.535 10.085-11.047l.014-.001.014-.004a1.06 1.06 0 01.234-.038l.325-.018-.225-.235a7.588 7.588 0 01-2.102-5.246v-5.929a6.06 6.06 0 016.053-6.053h8.122c.586 0 1.061.476 1.061 1.061v4.031c0 .113-.005.225-.013.338l-.001.015.002.016a.977.977 0 01.012.15v6.37c0 2.032-.8 3.88-2.102 5.247l-.224.235.325.018c.08.004.158.017.234.038zm-.355-15.247v-.15H14.55a3.935 3.935 0 00-3.932 3.931v1.764h8.268a2.727 2.727 0 002.724-2.725v-2.82zm-10.842 7.666h-.15v2.044a5.502 5.502 0 005.496 5.496 5.502 5.502 0 005.496-5.496V37.15l-.227.138c-.73.44-1.584.694-2.497.694h-8.118zm8.088 9.918l.256-.256h-5.995l.255.256 2.636 2.636.106.106.106-.107 2.636-2.635zm10.95 12.828h.15v-4.113c0-4.562-3.424-8.336-7.835-8.897l-.073-.01-.053.053-5.13 5.131a1.06 1.06 0 01-1.501 0l-5.131-5.131-.052-.052-.073.01c-4.12.523-7.376 3.848-7.79 8l-.017.165h5.147a1.06 1.06 0 010 2.122H2.272v2.722h27.533zm21.933-42.059l.013.004h.014c5.646.512 10.085 5.272 10.085 11.048v5.174a1.06 1.06 0 01-1.061 1.06H50.657a1.06 1.06 0 110-2.121h9.071V29.72c0-4.562-3.423-8.336-7.835-8.897l-.073-.01-.052.052-5.131 5.132h0a1.057 1.057 0 01-1.5 0l-5.132-5.132-.052-.052-.073.01c-4.412.56-7.835 4.335-7.835 8.897v4.112h8.683a1.06 1.06 0 010 2.122h-9.744a1.06 1.06 0 01-1.06-1.06V29.72c0-5.777 4.438-10.536 10.084-11.047l.014-.002.014-.003a1.07 1.07 0 01.234-.039l.325-.017-.224-.236a7.589 7.589 0 01-2.102-5.246V7.203a6.06 6.06 0 016.053-6.053h8.122a1.06 1.06 0 011.06 1.06v4.032c0 .112-.005.224-.012.337l-.002.016.003.015c.007.052.012.102.012.15v6.371a7.588 7.588 0 01-2.102 5.246l-.225.236.325.017c.08.005.159.017.235.039zM45.78 23.64l.106.106.106-.106 2.635-2.636.257-.256h-5.995l.256.256 2.636 2.636zm-5.24-12.553h-.15v2.043a5.502 5.502 0 005.496 5.496 5.502 5.502 0 005.496-5.496v-2.875l-.228.137a4.813 4.813 0 01-2.497.695H40.54zm-.15-2.272v.15h8.268a2.727 2.727 0 002.725-2.724V3.272h-7.061a3.935 3.935 0 00-3.931 3.93v1.614z" fill="#CB8734" stroke="#fff" stroke-width=".3"/><path d="M45.137 34.144h0c.197-.197.47-.31.75-.31.279 0 .553.113.75.31.197.197.311.471.311.75 0 .28-.114.553-.31.75h-.001a1.063 1.063 0 01-1.5 0h0a1.063 1.063 0 010-1.5zM27.167 12.88v.062l.044.044 5.064 5.065a1.061 1.061 0 01-.75 1.81h-4.761l-.038.094a5.87 5.87 0 01-5.464 3.66H6.055A5.912 5.912 0 01.15 17.712V7.055A5.912 5.912 0 016.055 1.15h15.207a5.912 5.912 0 015.905 5.905v5.825zm1.434 4.86h.362l-.256-.256-3.351-3.352a1.06 1.06 0 01-.311-.75V7.055a3.787 3.787 0 00-3.783-3.783H6.055a3.787 3.787 0 00-3.783 3.783V17.71a3.787 3.787 0 003.783 3.783h15.207a3.763 3.763 0 003.685-2.931c.111-.482.54-.823 1.034-.823h2.62zm6.534 26.398h.101l.038-.093a5.87 5.87 0 015.464-3.66h15.207a5.911 5.911 0 015.905 5.904v10.656a5.912 5.912 0 01-5.905 5.905H40.738a5.912 5.912 0 01-5.905-5.905v-5.887l-.044-.044-5.064-5.065s0 0 0 0a1.06 1.06 0 01.75-1.81h4.66zM33.4 46.26h-.363l.256.256 3.352 3.352c.2.199.311.469.311.75v6.327a3.787 3.787 0 003.783 3.783h15.207a3.787 3.787 0 003.783-3.783V46.29a3.787 3.787 0 00-3.783-3.783H40.738a3.763 3.763 0 00-3.685 2.931c-.111.482-.54.823-1.034.823h-2.62z" fill="#CB8734" stroke="#fff" stroke-width=".3"/><path d="M48.853 51.826l-.106-.106-1.497-1.497a1.061 1.061 0 00-1.5 0s0 0 0 0m3.103 1.603l.856 2.357a1.207 1.207 0 01-1.712 0l-2.353-2.353a1.211 1.211 0 010-1.713l.106.107m3.103 1.602l.106-.106 3.22-3.219a1.06 1.06 0 111.5 1.5l-4.076 4.076h0a1.057 1.057 0 01-1.5 0l-2.353-2.353-.106.106.106-.106m3.103.102l-3.103-.102m0-1.5a1.061 1.061 0 000 1.5m0-1.5v1.5M16.748 9.191a1.77 1.77 0 01-1.382 1.863m1.382-1.863l.15-.01s0 0 0 0a1.927 1.927 0 00-3.85.139 1.061 1.061 0 11-2.121 0l4.44 1.734m1.38-1.863a1.777 1.777 0 00-1.643-1.643l1.644 1.643zm-1.38 1.863a2.034 2.034 0 00-1.603 1.993m1.602-1.993l-1.601 1.993M12.213 6.36h0a4.063 4.063 0 00-1.286 2.96l1.286-2.96zm0 0a4.014 4.014 0 013.047-1.08l-3.047 1.08zm1.552 6.687v.646m0-.646v.646m0 0c0 .67.542 1.211 1.21 1.211m-1.21-1.21l1.21 1.21m0 0a1.21 1.21 0 001.211-1.21m-1.21 1.21l1.21-1.21m0 0v-.353.353zm-1.961 3.884h0c.198-.198.47-.311.75-.311s.553.113.75.31c.198.197.312.472.312.75 0 .279-.114.553-.311.75a1.07 1.07 0 01-.75.311c-.28 0-.553-.113-.75-.31h0a1.065 1.065 0 01-.311-.75c0-.28.112-.554.31-.75zm-1.934 38.306c.279 0 .553.114.75.311.197.197.311.472.311.75 0 .279-.114.553-.31.75a1.07 1.07 0 01-.751.311 1.07 1.07 0 01-.75-.31 1.07 1.07 0 01-.31-.75c0-.28.113-.554.31-.75a1.07 1.07 0 01.75-.312z" fill="#CB8734" stroke="#fff" stroke-width=".3"/></svg>