<svg width="62" height="62" fill="none" xmlns="http://www.w3.org/2000/svg"><path opacity=".58" fill="#fff" d="M0 0h62v62H0z"/><path d="M38.617 39.87l.035.012.021-.029L42 35.416l3.327 4.437.022.029.034-.012 3.775-1.257-1.334 9.337H36.177l-1.335-9.337 3.776 1.257zm7.516 6.18h.044l.006-.043.648-4.54.011-.08-.077.026-2.113.705-2.612-3.481-.04-.053-.04.053-2.611 3.481-2.114-.705-.077-.026.012.08.648 4.54.006.043h8.309z" fill="#CB8734" stroke="#fff" stroke-width=".1"/><path d="M30.05 42c0-6.59 5.36-11.95 11.95-11.95 6.59 0 11.95 5.36 11.95 11.95 0 6.59-5.36 11.95-11.95 11.95-6.59 0-11.95-5.36-11.95-11.95zm1.9 0c0 5.542 4.508 10.05 10.05 10.05 5.542 0 10.05-4.508 10.05-10.05 0-5.542-4.508-10.05-10.05-10.05-5.542 0-10.05 4.508-10.05 10.05z" fill="#CB8734" stroke="#fff" stroke-width=".1"/><path d="M51.934 51.935a3.965 3.965 0 001.072-1.937m-1.072 1.937L51.9 51.9m.035.035s0 0 0 0L51.9 51.9m.035.035a3.98 3.98 0 01-1.937 1.072 18.735 18.735 0 00-5.87 2.431c-1.269.803-2.985.803-4.256 0a18.711 18.711 0 00-5.87-2.431 3.974 3.974 0 01-1.936-1.072 3.972 3.972 0 01-1.072-1.938 18.758 18.758 0 00-2.431-5.87A3.981 3.981 0 0127.95 42c0-.758.212-1.494.613-2.129a18.728 18.728 0 002.431-5.87l22.012 15.997m0 0a18.728 18.728 0 012.431-5.87m-2.431 5.87l2.431-5.87M51.9 51.9a3.92 3.92 0 001.058-1.913L51.899 51.9zm3.538-7.771a3.98 3.98 0 00.613-2.13c0-.757-.212-1.493-.612-2.126a18.757 18.757 0 01-2.431-5.87 3.978 3.978 0 00-1.072-1.938 3.966 3.966 0 00-1.937-1.07 18.698 18.698 0 01-5.87-2.432A3.98 3.98 0 0042 27.95c-.757 0-1.494.212-2.127.612a18.727 18.727 0 01-5.869 2.431 3.976 3.976 0 00-1.938 1.072 3.965 3.965 0 00-1.072 1.937l24.443 10.127zm-.578-10.544h0a16.858 16.858 0 002.185 5.273h0c.593.938.906 2.024.906 3.142a5.873 5.873 0 01-.905 3.141h0a16.815 16.815 0 00-2.185 5.274h0a5.87 5.87 0 01-1.581 2.863h0a5.877 5.877 0 01-2.862 1.581 16.855 16.855 0 00-5.276 2.184h0A5.866 5.866 0 0142 57.95a5.873 5.873 0 01-3.141-.905h0a16.814 16.814 0 00-5.275-2.185 5.877 5.877 0 01-2.862-1.581h0a5.869 5.869 0 01-1.581-2.864h0a16.858 16.858 0 00-2.185-5.274h0A5.865 5.865 0 0126.05 42c0-1.118.313-2.205.904-3.142a16.815 16.815 0 002.185-5.274h0a5.874 5.874 0 011.581-2.863 5.868 5.868 0 012.864-1.581h0a16.84 16.84 0 005.274-2.185h0c1.874-1.185 4.407-1.185 6.283 0l.027-.042-.027.042a16.795 16.795 0 005.274 2.185h0a5.869 5.869 0 012.863 1.581 5.874 5.874 0 011.581 2.864z" fill="#CB8734" stroke="#fff" stroke-width=".1"/><path d="M14 16.05h.05V2c0-1.075.875-1.95 1.95-1.95h33.393L61.95 12.607V60c0 1.075-.875 1.95-1.95 1.95H2A1.952 1.952 0 01.05 60v-6A3.954 3.954 0 014 50.05h1.597l-.028-.069-1.275-3.188-.046.019.046-.019a3.406 3.406 0 01-.244-1.269c0-1.302.723-2.472 1.89-3.055h0l.083-.042.027-.014v-3.331h0v-.008l-1.963-11.77v-.007l-.004-.006-2.21-4.422 5.681-6.819H14zM52.05 14v-.05h-4v-6h-24.1v8.1h28.1V14zm-2.1-2v.05h8.756l-.085-.085-8.586-8.586-.085-.086V12zM16.865 22.05h.107l-.069-.082-3.334-4-.015-.018H11.95v4.1h4.915zm-2.712 16h.042l.007-.042 1.666-10 .01-.058H6.121l.01.058 1.667 10 .007.042h6.348zM14.05 40v-.05h-6.1v2.1h6.1V40zM5.573 26.022l.014.028h4.463v-2.1H4.538l.035.072 1 2zm10.809.028h.03l.015-.028 1-2 .036-.072H11.95v2.1h4.432zm-7.913-8.1h-.023l-.015.018-3.334 4-.069.082h5.022v-4.1H8.469zM6.058 46.087h0L7.63 50.02l.012.031h6.715l.012-.031 1.572-3.93a1.509 1.509 0 00-.73-1.92l-.426-.214-.01-.005H7.226l-.01.005-.425.212c-.52.259-.841.779-.841 1.357 0 .195.036.385.108.563zM20 56.05h.05V56l-.001-2c0-1.13-.92-2.05-2.05-2.05H4c-1.13 0-2.05.92-2.05 2.05v2.05h18.051zM1.95 60v.05h18.102V60l-.001-2v-.05H1.95V60zm20 0v.05h38.1v-46.1h-6.1v4h-31.9V6.05h26v-4.1h-32.1v15.906l.012.014 4.165 4.999-2.21 4.422-.004.006-.001.008-1.961 11.769h-.001v3.339l.028.014.084.04s0 0 0 0a3.4 3.4 0 011.888 3.057 3.4 3.4 0 01-.245 1.27h0l-1.274 3.187-.028.069H18A3.954 3.954 0 0121.95 54v6z" fill="#CB8734" stroke="#fff" stroke-width=".1"/></svg>