<svg width="62" height="62" fill="none" xmlns="http://www.w3.org/2000/svg"><path opacity=".58" fill="#fff" d="M0 0h62v62H0z"/><path d="M52.804 2.128l.124-.161H13.433a3.2 3.2 0 00-3.2 3.2v18.255a.933.933 0 11-1.866 0V5.167A5.073 5.073 0 0113.433.1h43.398a5.073 5.073 0 015.067 5.067V9.3a.933.933 0 01-.934.933h-7.333v6.706a.934.934 0 01-1.866 0V5.167a5.013 5.013 0 011.04-3.04zm7.127 6.238h.1v-3.2a3.2 3.2 0 10-6.4 0v3.2h6.3zM2.067 55.698h-.1v1.133a3.2 3.2 0 003.2 3.2h39.465l-.12-.16a5.045 5.045 0 01-1.013-3.04v0-1.133H2.067zM52.038 42.11a.933.933 0 011.594.66v14.06a5.072 5.072 0 01-5.067 5.067H5.167A5.073 5.073 0 01.1 56.831v-2.067a.933.933 0 01.934-.933h43.398a.933.933 0 01.933.933v2.067a3.2 3.2 0 006.4 0V42.77c0-.248.098-.485.273-.66z" fill="#CB8734" stroke="#fff" stroke-width=".2"/><path d="M1.034 35.032h0a.934.934 0 01-.518-1.71l12.399-8.266h0a.933.933 0 011.036 0h0l12.4 8.266a.933.933 0 01-.518 1.71h-3.2v13.533a.933.933 0 01-.934.933H5.167a.933.933 0 01-.934-.933V38.232a.933.933 0 111.867 0v9.4h3.3v-5.268a3 3 0 013-3h2.066a3 3 0 013 3v5.266h3.3v-12.6H1.034zm10.232 12.5v.1H15.6v-5.268a1.133 1.133 0 00-1.134-1.133H12.4a1.133 1.133 0 00-1.134 1.133v5.166zm2.223-20.543l-.056-.037-.056.037-8.99 5.993-.274.183h18.64l-.275-.183-8.99-5.993zM60.398 16h0a3 3 0 011.1 4.1h0l-1.55 2.686-.05.086.086.05a.936.936 0 01.34 1.277h0l-1.55 2.687-.05.087.087.05.894.516h0a.934.934 0 11-.932 1.617h0l-.896-.517-.087-.05-.05.087-2.31 4.014a.934.934 0 01-1.618-.933s0 0 0 0l2.32-4.018.05-.086-.087-.05-3.578-2.067-.087-.05-.05.087-9.3 16.106-.05.087.087.05 1.79 1.033 1.79 1.034.086.05.05-.087 4.912-8.51-.087-.05.087.05a.934.934 0 111.618.933s0 0 0 0l-5.43 9.403h0a.153.153 0 01-.02.026.451.451 0 00-.032.04l-.001.001a.877.877 0 01-.085.11.778.778 0 01-.082.07h0l-.01.009a.648.648 0 01-.068.058l-2.994 1.976h0a2.602 2.602 0 01-1.43.433 2.703 2.703 0 01-.33-.043l-.07-.014-.035.062-.63 1.091h0a.934.934 0 01-1.618-.933l.631-1.093.034-.059-.042-.053a2.58 2.58 0 01-.546-1.723s0 0 0 0l.204-3.569s0 0 0 0l.006-.02a.225.225 0 00.004-.029c0-.002 0-.005.005-.02v-.002a.932.932 0 01.1-.308h0l.001-.002a.162.162 0 00.014-.04h0l9.813-16.997.05-.086-.087-.05-.894-.517s0 0 0 0a1.133 1.133 0 00-1.548.414h0l-4.134 7.16h0a.934.934 0 11-1.617-.934s0 0 0 0l4.133-7.16h0a3 3 0 014.1-1.1h0l.895.517.087.05.05-.086 1.55-2.687s0 0 0 0a.933.933 0 011.274-.341l.087.05.05-.087 1.55-2.687h0a3 3 0 014.1-1.1zm-16.79 30.404h0l1.602-1.056.135-.09-.14-.08-2.477-1.428-.14-.081-.01.161-.115 1.912h0a.74.74 0 001.144.662zm14.307-28.371h0l-1.55 2.686-.05.087.086.05.896.516h0l.895.517.086.05.05-.087 1.55-2.686h0a1.134 1.134 0 00-.415-1.547l-.05.087.05-.087a1.134 1.134 0 00-1.548.414zm-4.51 5.748l-.05.086.087.05 3.578 2.067.086.05.05-.087 1.034-1.79.05-.086-.087-.05-3.578-2.066-.087-.05-.05.086-1.033 1.79zm-14.14-13.348h.1V8.166H22.633v2.267h16.632zm1.967-3.2v4.133a.933.933 0 01-.934.933H21.7a.933.933 0 01-.933-.933V7.233A.933.933 0 0121.7 6.3h18.6a.933.933 0 01.933.933zm-.934 12.734H21.7a.933.933 0 110-1.867h18.6a.933.933 0 110 1.867zm1.034 6H21.699a.933.933 0 110-1.867h19.633a.933.933 0 010 1.867zm-11.366 5.132h9.3a.934.934 0 010 1.866h-9.3a.933.933 0 010-1.866z" fill="#CB8734" stroke="#fff" stroke-width=".2"/><path d="M39.925 37.572a.934.934 0 01-.66 1.593H25.833a.933.933 0 010-1.867h13.432c.248 0 .485.099.66.274zM27.24 44.373a.933.933 0 01.659-.273h7.233a.933.933 0 110 1.867h-7.233a.933.933 0 01-.66-1.594z" fill="#CB8734" stroke="#fff" stroke-width=".2"/></svg>