<svg width="62" height="62" fill="none" xmlns="http://www.w3.org/2000/svg"><path opacity=".58" fill="#fff" d="M0 0h62v62H0z"/><path d="M38.23 57.183l.023.003 8.472 1.073.026.003.012.024 1.467 2.828a.86.86 0 001.399.18l2.885-3.193a.858.858 0 00.22-.615l-.15-3.257-.002-.027.022-.016a4.07 4.07 0 001.624-2.73l1.114-8.646.009-.068.062.03c1.547.729 3.437-.292 3.657-2l1.438-11.16c.255-1.979-.947-3.94-2.833-4.6l-.04-.013.008-.042c.353-2.137-.945-4.284-3.117-4.737l-.045-.01.005-.045 1.495-11.922c.222-1.774-1.1-3.467-2.876-3.69L17.31.076s0 0 0 0a3.314 3.314 0 00-3.702 2.92V3h0L13 7.838l-.005.044H5.362a3.312 3.312 0 00-3.312 3.304v35.062c.019.563.435.849.855.852a.87.87 0 00.58-.21c.158-.14.27-.352.281-.643v-35.06c0-.877.716-1.59 1.596-1.59h36.074c.88 0 1.596.713 1.596 1.59V49.47h-7.485a3.312 3.312 0 00-3.313 3.304v7.46H5.362c-.88 0-1.596-.712-1.596-1.588v-7.561a.858.858 0 10-1.716 0v7.56a3.312 3.312 0 003.312 3.305h27.73a.873.873 0 00.608-.252l4.53-4.515zm0 0l-.018.017-4.512 4.498 4.53-4.515zm12.413-27.227l.05.007 4.45.573.05.006-.007.05-.232 1.802a.79.79 0 00.185.651.907.907 0 00.56.282.908.908 0 00.613-.13.79.79 0 00.344-.584l.745-5.78.009-.071.064.034a2.569 2.569 0 011.332 2.597l-1.438 11.16a.764.764 0 01-.35.571.92.92 0 01-.611.12.932.932 0 01-.558-.279.753.753 0 01-.188-.634l-5.018-10.375zm0 0l-.007.05-2.66 20.643a2.313 2.313 0 001.982 2.569 2.313 2.313 0 002.568-1.982l1.812-14.063a.79.79 0 01.344-.583.908.908 0 01.613-.13c.215.027.42.124.56.28a.79.79 0 01.185.652l-.379 2.938-5.018-10.374zm.347 27.272l.014-.016-.001-.02-.104-2.237-.003-.055-.054.008a4.038 4.038 0 01-2.167-.278l-.051-.022-.017.053-.667 2.136-.006.02.01.018 1.207 2.327.033.064.048-.054 1.758-1.944zm4.372-28.394l.05.006.006-.05.561-4.354a2.297 2.297 0 00-1.982-2.568 2.28 2.28 0 00-1.694.46 2.28 2.28 0 00-.874 1.522l-.56 4.354-.007.05.05.006 4.45.574zM14.732 7.826l-.007.056h26.711a3.312 3.312 0 013.312 3.304v39.142c0 .235-.097.432-.253.609l-4.654 4.639-.073.072.102.013 6.334.802.041.005.013-.04.904-2.895.008-.026-.017-.02a4.072 4.072 0 01-.879-3.057l2.776-21.544h0v-.003l.677-5.252a3.983 3.983 0 011.528-2.662c.44-.34.935-.58 1.458-.712l.033-.009.005-.034L54.278 8.03l-.05-.006.05.006a1.605 1.605 0 00-1.386-1.774L17.097 1.779s0 0 0 0a1.594 1.594 0 00-1.776 1.341h0v.004a.894.894 0 01-.005.047s0 0 0 0l-.584 4.655zM41.728 51.27l.086-.085h-6.268c-.88 0-1.596.712-1.596 1.588v6.252l.086-.085 7.692-7.669z" fill="#CB8734" stroke="#fff" stroke-width=".1"/><path d="M37.583 19.174h.05v-4.439H9.043v4.44h28.54zm1.766-5.297v6.155a.858.858 0 01-.858.858H8.184a.858.858 0 01-.858-.858v-6.155c0-.474.385-.858.858-.858h30.307c.474 0 .858.384.858.858zM9.166 27.332c-1.136-.04-1.137-1.676 0-1.716h28.466c1.136.04 1.137 1.676 0 1.716H9.166zm9.71 6.175c-1.136-.04-1.137-1.676 0-1.716h18.756c1.136.04 1.137 1.676 0 1.716H18.876zm18.757 4.458a.858.858 0 110 1.716H18.876c-1.136-.04-1.137-1.675 0-1.716h18.757zm-27.265 3.353l-.005.049c-.044.448.062.77.235.976.172.206.414.3.654.288a.846.846 0 00.64-.355c.164-.224.253-.556.188-.997l-.006-.043.042-.012c1.302-.369 2.138-1.502 2.327-2.62.25-1.476-.544-2.81-1.979-3.32a10.5 10.5 0 00-.362-.118c-.355-.11-.801-.25-1.184-.444-.266-.134-.508-.297-.67-.5a.874.874 0 01-.19-.736m.31 7.832l.4-8.62-.015-.049c-.423.129-.636.52-.696.837m.311 7.832l-.049-.006m.05.006l-.05-.006m-.262-7.826l.05.009-.05-.01s0 0 0 0zm.262 7.826c-.634-.07-1.156-.259-1.868-.727a.858.858 0 01-.245-1.189m2.113 1.916l-2.113-1.916m4.224-6.478h0l.001.002.005.006a1.159 1.159 0 00.38.306c.119.056.26.089.418.066.158-.024.337-.104.531-.284.177-.165.252-.33.27-.482a.78.78 0 00-.09-.433 1.432 1.432 0 00-.343-.436l-.007-.006-.001-.002h0l-1.164 1.263zm0 0h0zm-1.214 6.715c.904-.006 1.43-.688 1.536-1.315h0a1.356 1.356 0 00-.06-.7c-.107-.277-.338-.552-.803-.717-1.362-.485-2.145-.864-2.71-1.31-.677-.535-.99-1.463-.808-2.424.192-1.016.959-1.897 1.956-2.179l.042-.012-.006-.043c-.054-.42.04-.736.202-.947a.837.837 0 01.635-.33.803.803 0 01.644.283c.17.199.275.507.236.934l-.004.044.043.01c.677.149 1.195.469 1.472.726h0l.002.002-2.378 7.928m0 .05v-.05m0 .05s0 0 0 0v-.05m0 .05c-.43.003-.719-.006-.983-.073-.266-.066-.505-.19-.837-.409m1.82.432c-.861.006-1.13-.038-1.793-.473m-.027.041l.027-.041m-.027.041a.858.858 0 00-1.189.245m1.189-.245s0 0 0 0l.027-.041m0 0l-1.216.286M26.16 54.224c1.137.04 1.137 1.675 0 1.716H9.167c-1.136-.04-1.137-1.676 0-1.716H26.16z" fill="#CB8734" stroke="#fff" stroke-width=".1"/></svg>