<svg width="62" height="62" fill="none" xmlns="http://www.w3.org/2000/svg"><path opacity=".58" fill="#fff" d="M0 0h62v62H0z"/><mask id="path-2-inside-1" fill="#fff"><path d="M61.092 22.069h-1.098v-1.1a.908.908 0 00-1.816 0v1.1H57.08a.908.908 0 00-.908.908v3.008a.095.095 0 01-.095.095h-7.022a.908.908 0 00-.908.908v1.098H47.05a.908.908 0 100 1.816h1.098V31c0 .502.407.908.908.908h7.022c.052 0 .095.043.095.095v16.049a.095.095 0 01-.095.095H38.022a.095.095 0 01-.095-.095v-5.015a.908.908 0 00-.908-.908H35.92V41.03a.908.908 0 10-1.817 0v1.098h-1.098a.908.908 0 00-.908.908v5.015a.095.095 0 01-.095.095H13.948a.095.095 0 01-.095-.095V32.003c0-.052.043-.095.095-.095h18.055c.053 0 .095.043.095.095v3.01c0 .5.407.907.908.907h1.098v1.098a.908.908 0 101.817 0V35.92h1.098a.908.908 0 00.908-.908v-3.009c0-.052.042-.095.095-.095h3.009a.908.908 0 00.908-.908v-1.098h1.098a.908.908 0 100-1.816h-1.098v-1.098a.908.908 0 00-.908-.908h-3.01a.095.095 0 01-.094-.095v-3.01a.908.908 0 00-.908-.908H35.92V20.97a.908.908 0 10-1.817 0v1.097h-1.098a.908.908 0 00-.908.909v3.009a.095.095 0 01-.095.095h-8.959a.908.908 0 100 1.816h8.96a1.913 1.913 0 001.91-1.911v-2.101h2.196v2.1c0 1.055.858 1.912 1.912 1.912h2.1v2.196h-2.1a1.913 1.913 0 00-1.912 1.911v2.101h-2.196v-2.101a1.913 1.913 0 00-1.91-1.911H13.947a1.913 1.913 0 00-1.911 1.911v16.049c0 1.054.857 1.911 1.911 1.911h18.055a1.913 1.913 0 001.911-1.911v-4.107h2.196v4.107c0 1.054.858 1.911 1.912 1.911h18.055a1.914 1.914 0 001.911-1.91v-16.05a1.913 1.913 0 00-1.911-1.911h-6.113v-2.196h6.113a1.914 1.914 0 001.911-1.911v-2.1h2.196v28.18a.095.095 0 01-.095.094H9.936a.095.095 0 01-.095-.095V1.911c0-.052.043-.095.095-.095h39.309a.908.908 0 100-1.816H9.935c-.208 0-.408.035-.596.097A.903.903 0 008.933 0H6.927a.908.908 0 100 1.816h1.102c-.001.032-.004.063-.004.095v50.153c0 .032.003.063.004.095H6.927a.908.908 0 100 1.816h1.098v1.098a.908.908 0 101.816 0v-1.102c.032.001.063.005.095.005h50.153c.032 0 .063-.004.095-.005v1.102a.908.908 0 101.816 0v-2.006a.903.903 0 00-.097-.406 1.9 1.9 0 00.097-.597V22.977a.908.908 0 00-.908-.908z"/></mask><path d="M61.092 22.069h-1.098v-1.1a.908.908 0 00-1.816 0v1.1H57.08a.908.908 0 00-.908.908v3.008a.095.095 0 01-.095.095h-7.022a.908.908 0 00-.908.908v1.098H47.05a.908.908 0 100 1.816h1.098V31c0 .502.407.908.908.908h7.022c.052 0 .095.043.095.095v16.049a.095.095 0 01-.095.095H38.022a.095.095 0 01-.095-.095v-5.015a.908.908 0 00-.908-.908H35.92V41.03a.908.908 0 10-1.817 0v1.098h-1.098a.908.908 0 00-.908.908v5.015a.095.095 0 01-.095.095H13.948a.095.095 0 01-.095-.095V32.003c0-.052.043-.095.095-.095h18.055c.053 0 .095.043.095.095v3.01c0 .5.407.907.908.907h1.098v1.098a.908.908 0 101.817 0V35.92h1.098a.908.908 0 00.908-.908v-3.009c0-.052.042-.095.095-.095h3.009a.908.908 0 00.908-.908v-1.098h1.098a.908.908 0 100-1.816h-1.098v-1.098a.908.908 0 00-.908-.908h-3.01a.095.095 0 01-.094-.095v-3.01a.908.908 0 00-.908-.908H35.92V20.97a.908.908 0 10-1.817 0v1.097h-1.098a.908.908 0 00-.908.909v3.009a.095.095 0 01-.095.095h-8.959a.908.908 0 100 1.816h8.96a1.913 1.913 0 001.91-1.911v-2.101h2.196v2.1c0 1.055.858 1.912 1.912 1.912h2.1v2.196h-2.1a1.913 1.913 0 00-1.912 1.911v2.101h-2.196v-2.101a1.913 1.913 0 00-1.91-1.911H13.947a1.913 1.913 0 00-1.911 1.911v16.049c0 1.054.857 1.911 1.911 1.911h18.055a1.913 1.913 0 001.911-1.911v-4.107h2.196v4.107c0 1.054.858 1.911 1.912 1.911h18.055a1.914 1.914 0 001.911-1.91v-16.05a1.913 1.913 0 00-1.911-1.911h-6.113v-2.196h6.113a1.914 1.914 0 001.911-1.911v-2.1h2.196v28.18a.095.095 0 01-.095.094H9.936a.095.095 0 01-.095-.095V1.911c0-.052.043-.095.095-.095h39.309a.908.908 0 100-1.816H9.935c-.208 0-.408.035-.596.097A.903.903 0 008.933 0H6.927a.908.908 0 100 1.816h1.102c-.001.032-.004.063-.004.095v50.153c0 .032.003.063.004.095H6.927a.908.908 0 100 1.816h1.098v1.098a.908.908 0 101.816 0v-1.102c.032.001.063.005.095.005h50.153c.032 0 .063-.004.095-.005v1.102a.908.908 0 101.816 0v-2.006a.903.903 0 00-.097-.406 1.9 1.9 0 00.097-.597V22.977a.908.908 0 00-.908-.908z" fill="#CB8734" stroke="#fff" stroke-width=".4" mask="url(#path-2-inside-1)"/><path d="M60.184 14.145h.1V1.91a.195.195 0 00-.195-.195h-7.212a.808.808 0 110-1.616h7.212c.998 0 1.81.813 1.81 1.811v13.042a.808.808 0 01-.807.808h-1.198v1.197a.808.808 0 11-1.617 0v-1.196H57.08a.808.808 0 01-.809-.808v-9.03a.195.195 0 00-.195-.194H38.021a.195.195 0 00-.194.195v9.027a.808.808 0 01-.809.808H35.82v1.198a.808.808 0 11-1.616 0V15.76h-1.198a.808.808 0 01-.808-.808V5.924a.195.195 0 00-.195-.195H13.948a.195.195 0 00-.195.195v20.06c0 .108.087.196.195.196h5.463a.808.808 0 110 1.616h-5.463a1.813 1.813 0 01-1.811-1.811V5.924c0-1 .812-1.812 1.81-1.812h18.056c.999 0 1.811.813 1.811 1.812v8.219h2.396v-8.22c0-.998.813-1.81 1.811-1.81h18.055c.999 0 1.812.812 1.812 1.81v8.222h1.159v0h.004a.561.561 0 00.035-.002h.012l.023.002h1.063zm-4.013 44.132h.1V57.08a.808.808 0 111.617 0v4.012a.808.808 0 11-1.617 0v-1.198H13.753v1.198a.808.808 0 11-1.616 0V57.08a.808.808 0 111.616 0v1.197h42.418zM3.723 48.147v.1H4.92a.808.808 0 110 1.616H.908a.808.808 0 110-1.616h1.198V5.729H.908a.808.808 0 110-1.617H4.92a.808.808 0 110 1.617H3.723v42.418z" fill="#CB8734" stroke="#fff" stroke-width=".2"/></svg>