<svg width="62" height="62" fill="none" xmlns="http://www.w3.org/2000/svg"><path opacity=".58" fill="#fff" d="M0 0h62v62H0z"/><mask id="path-2-inside-1" fill="#fff"><path d="M61 52h-2V17.5a3.504 3.504 0 00-3.5-3.5H45v-2a.997.997 0 00-.581-.908l-13-6a.991.991 0 00-.838 0L25 7.668V5a1 1 0 00-2 0v3.591l-5.419 2.502A.997.997 0 0017 12v2H6.5A3.504 3.504 0 003 17.5V52H1a1 1 0 00-1 1v5.5A3.504 3.504 0 003.5 62h55a3.504 3.504 0 003.5-3.5V53a1 1 0 00-1-1zM23 10.794V11a1 1 0 002 0V9.87l6-2.769L41.614 12 31 16.899 20.386 12 23 10.794zm20 2.768V25.36l-11 5.078V18.64l11-5.078zm-24 0l11 5.078v11.797L19 25.36V13.563zm-1.419 13.345l13 6a.995.995 0 00.838 0l13-6A.997.997 0 0045 26v-7h9v30H8V19h9v7a.997.997 0 00.581.907zM5 17.5A1.501 1.501 0 016.5 16H17v1H7a1 1 0 00-1 1v32a1 1 0 001 1h48a1 1 0 001-1V18a1 1 0 00-1-1H45v-1h10.5a1.501 1.501 0 011.5 1.5V52H5V17.5zM34.719 54l-.5 2H27.78l-.5-2h7.438zM60 58.5a1.501 1.501 0 01-1.5 1.5h-55A1.501 1.501 0 012 58.5V54h23.219l.811 3.242A1 1 0 0027 58h8a1 1 0 00.97-.758L36.781 54H60v4.5z"/></mask><path d="M61 52h-2V17.5a3.504 3.504 0 00-3.5-3.5H45v-2a.997.997 0 00-.581-.908l-13-6a.991.991 0 00-.838 0L25 7.668V5a1 1 0 00-2 0v3.591l-5.419 2.502A.997.997 0 0017 12v2H6.5A3.504 3.504 0 003 17.5V52H1a1 1 0 00-1 1v5.5A3.504 3.504 0 003.5 62h55a3.504 3.504 0 003.5-3.5V53a1 1 0 00-1-1zM23 10.794V11a1 1 0 002 0V9.87l6-2.769L41.614 12 31 16.899 20.386 12 23 10.794zm20 2.768V25.36l-11 5.078V18.64l11-5.078zm-24 0l11 5.078v11.797L19 25.36V13.563zm-1.419 13.345l13 6a.995.995 0 00.838 0l13-6A.997.997 0 0045 26v-7h9v30H8V19h9v7a.997.997 0 00.581.907zM5 17.5A1.501 1.501 0 016.5 16H17v1H7a1 1 0 00-1 1v32a1 1 0 001 1h48a1 1 0 001-1V18a1 1 0 00-1-1H45v-1h10.5a1.501 1.501 0 011.5 1.5V52H5V17.5zM34.719 54l-.5 2H27.78l-.5-2h7.438zM60 58.5a1.501 1.501 0 01-1.5 1.5h-55A1.501 1.501 0 012 58.5V54h23.219l.811 3.242A1 1 0 0027 58h8a1 1 0 00.97-.758L36.781 54H60v4.5z" fill="#CB8734" stroke="#fff" stroke-width=".6" mask="url(#path-2-inside-1)"/><path d="M17.695 41.207h0l7.359-2.83.096-.038V35a.85.85 0 111.7 0v2.685l.204-.078 3.64-1.4-.053-.14.054.14a.85.85 0 01.61 0l.054-.14-.054.14 13 5 .054-.14-.054.14a.85.85 0 010 1.586l.054.14-.054-.14-13 5 .054.14-.054-.14a.85.85 0 01-.61 0l-.054.14.054-.14-13-5h0a.85.85 0 010-1.586zm13.359-3.276l-.054-.02-.054.02-4 1.539-.096.037V41a.85.85 0 01-1.7 0v-.84l-.204.08-4.214 1.62-.364.14.364.14 10.214 3.929.054.02.054-.02 10.214-3.929.364-.14-.364-.14-10.214-3.929zm13.547-2.33A.85.85 0 0143.15 35v-5a.85.85 0 011.7 0v5a.85.85 0 01-.249.601zm-5 0A.85.85 0 0138.15 35v-3a.85.85 0 011.7 0v3a.85.85 0 01-.249.601zm-22.202 3A.85.85 0 0117.15 38v-5a.85.85 0 011.7 0v5a.85.85 0 01-1.451.601zm14.202-35A.85.85 0 0130.15 3V1a.85.85 0 011.7 0v2a.85.85 0 01-.249.601zm13 4A.85.85 0 0143.15 7V5a.85.85 0 011.7 0v2a.85.85 0 01-.249.601z" fill="#CB8734" stroke="#fff" stroke-width=".3"/></svg>