<svg width="62" height="62" fill="none" xmlns="http://www.w3.org/2000/svg"><path opacity=".58" fill="#fff" d="M0 0h62v62H0z"/><mask id="path-2-inside-1" fill="#fff"><path d="M57.441 29.796v-9.324a.908.908 0 10-1.816 0v7.754a4.946 4.946 0 00-3.935-.216v-4.76c0-4.369-3.555-7.924-7.924-7.924H17.583c-4.37 0-7.925 3.555-7.925 7.925v4.758a4.95 4.95 0 00-3.934.217V5.782h49.901v10.452a.908.908 0 101.816 0V2.487A2.49 2.49 0 0054.956 0H6.395a2.49 2.49 0 00-2.488 2.487v27.31a4.924 4.924 0 000 5.695v9.446a2.49 2.49 0 002.487 2.487h1.25c.066.082.14.158.216.23v2.232a2.258 2.258 0 00-1.958 2.234v1.516c0 1.163.886 2.124 2.018 2.242v3.561A2.563 2.563 0 0010.48 62h7.308a2.563 2.563 0 002.56-2.56v-3.548h3.772c.395.339.906.544 1.465.544h2.97a.908.908 0 100-1.816h-2.97a.448.448 0 01-.439-.44v-2.603c0-.233.199-.44.44-.44h10.117c.265 0 .41.141.48.318.005.016.02.053.02.122v2.604a.45.45 0 01-.44.44h-2.97a.908.908 0 100 1.816h2.97c.56 0 1.071-.206 1.466-.545h3.773v3.548a2.562 2.562 0 002.56 2.56h7.307a2.562 2.562 0 002.56-2.56v-3.56a2.259 2.259 0 002.018-2.243V52.12a2.258 2.258 0 00-1.958-2.234v-2.232a2.43 2.43 0 00.217-.23h1.249a2.49 2.49 0 002.487-2.487v-9.446c.57-.805.906-1.788.906-2.848a4.91 4.91 0 00-.907-2.848zm-4.305 5.962a4.666 4.666 0 00-1.446-1.896v-3.827c2.102-1.382 4.842.156 4.842 2.61a3.127 3.127 0 01-3.396 3.112zm-15.178 9.98H23.39a2.418 2.418 0 00-2.415 2.414v1.713H9.676v-1.55l7.121-.001a2.418 2.418 0 002.415-2.415v-1.172a2.418 2.418 0 00-2.415-2.415h-7.12v-4.776a2.836 2.836 0 012.833-2.834h36.329a2.838 2.838 0 012.833 2.834v4.776h-7.12a2.418 2.418 0 00-2.416 2.415v1.172a2.418 2.418 0 002.415 2.415h7.121v1.551H40.374v-1.713a2.418 2.418 0 00-2.416-2.415zM4.817 32.643c0-2.456 2.74-3.992 4.841-2.609v3.827a4.666 4.666 0 00-1.445 1.895 3.128 3.128 0 01-3.396-3.113zm8.018 11.484h3.962c.325 0 .599.274.599.599v1.172a.607.607 0 01-.599.599h-3.962c.049-.192.078-.392.078-.6v-1.171c0-.207-.03-.407-.078-.6zm-1.739.599v1.172a.607.607 0 01-.597.599h-.986a.609.609 0 01-.599-.6v-1.171a.61.61 0 01.6-.6h.984c.324 0 .598.275.598.6zm35.638-11.841h-1.351c-.125-4.241-3.611-7.654-7.882-7.654-4.271 0-7.758 3.413-7.882 7.654H14.614V23.25a2.972 2.972 0 012.97-2.969h26.181a2.972 2.972 0 012.97 2.969v9.635zm-12.168 0a2.948 2.948 0 012.934-2.71 2.948 2.948 0 012.935 2.71h-5.869zm2.935-4.526a4.767 4.767 0 00-4.755 4.526h-1.313a6.08 6.08 0 016.068-5.838 6.08 6.08 0 016.067 5.838h-1.312A4.766 4.766 0 0037.5 28.36zm11.013 18.138h-3.963a.607.607 0 01-.598-.6v-1.171c0-.325.274-.6.598-.6h3.963c-.05.193-.078.393-.078.6v1.172c0 .207.029.407.078.599zm1.738-.6v-1.171c0-.325.275-.6.6-.6h.984a.609.609 0 01.599.6v1.172a.61.61 0 01-.6.599h-.985a.607.607 0 01-.598-.6zM11.475 23.252a6.115 6.115 0 016.108-6.109h26.182a6.115 6.115 0 016.109 6.109v9.751a5.134 5.134 0 00-.454-.079c-.377-.047-.573-.035-.87-.037V23.25a4.79 4.79 0 00-4.785-4.785H17.583a4.79 4.79 0 00-4.785 4.785v9.635c-.383.007-.752-.014-1.323.116V23.25zM5.724 2.487c0-.37.3-.67.67-.67h48.56c.37 0 .671.3.671.67v1.479H5.724v-1.48zm0 42.451v-7.876a5.003 5.003 0 002.136.524v5.384l-.004.005a2.408 2.408 0 00-.758 1.752v.881h-.704a.67.67 0 01-.67-.67zm1.994 8.699V52.12c0-.238.201-.44.44-.44H23.33v2.395H8.157a.445.445 0 01-.439-.44zm10.813 5.803c0 .41-.333.744-.743.744H10.48a.744.744 0 01-.743-.744v-3.548h8.794v3.548zm6.994-10.12c-.538 0-1.059.199-1.464.545h-1.27v-1.713c0-.324.275-.599.6-.599h14.567c.325 0 .6.275.6.6v1.712h-1.33c-.718-.616-1.489-.538-1.525-.544H25.525zm26.087 10.12c0 .41-.334.744-.743.744H43.56a.744.744 0 01-.743-.744v-3.548h8.794v3.548zm2.018-7.32v1.517c0 .238-.2.439-.439.439H38.02v-2.394h15.172c.238 0 .44.2.44.439zm1.995-7.182c0 .37-.3.67-.67.67h-.704v-.881c0-.69-.293-1.312-.758-1.752l-.004-.005v-5.384a5.003 5.003 0 002.136-.523v7.875z"/></mask><path d="M57.441 29.796v-9.324a.908.908 0 10-1.816 0v7.754a4.946 4.946 0 00-3.935-.216v-4.76c0-4.369-3.555-7.924-7.924-7.924H17.583c-4.37 0-7.925 3.555-7.925 7.925v4.758a4.95 4.95 0 00-3.934.217V5.782h49.901v10.452a.908.908 0 101.816 0V2.487A2.49 2.49 0 0054.956 0H6.395a2.49 2.49 0 00-2.488 2.487v27.31a4.924 4.924 0 000 5.695v9.446a2.49 2.49 0 002.487 2.487h1.25c.066.082.14.158.216.23v2.232a2.258 2.258 0 00-1.958 2.234v1.516c0 1.163.886 2.124 2.018 2.242v3.561A2.563 2.563 0 0010.48 62h7.308a2.563 2.563 0 002.56-2.56v-3.548h3.772c.395.339.906.544 1.465.544h2.97a.908.908 0 100-1.816h-2.97a.448.448 0 01-.439-.44v-2.603c0-.233.199-.44.44-.44h10.117c.265 0 .41.141.48.318.005.016.02.053.02.122v2.604a.45.45 0 01-.44.44h-2.97a.908.908 0 100 1.816h2.97c.56 0 1.071-.206 1.466-.545h3.773v3.548a2.562 2.562 0 002.56 2.56h7.307a2.562 2.562 0 002.56-2.56v-3.56a2.259 2.259 0 002.018-2.243V52.12a2.258 2.258 0 00-1.958-2.234v-2.232a2.43 2.43 0 00.217-.23h1.249a2.49 2.49 0 002.487-2.487v-9.446c.57-.805.906-1.788.906-2.848a4.91 4.91 0 00-.907-2.848zm-4.305 5.962a4.666 4.666 0 00-1.446-1.896v-3.827c2.102-1.382 4.842.156 4.842 2.61a3.127 3.127 0 01-3.396 3.112zm-15.178 9.98H23.39a2.418 2.418 0 00-2.415 2.414v1.713H9.676v-1.55l7.121-.001a2.418 2.418 0 002.415-2.415v-1.172a2.418 2.418 0 00-2.415-2.415h-7.12v-4.776a2.836 2.836 0 012.833-2.834h36.329a2.838 2.838 0 012.833 2.834v4.776h-7.12a2.418 2.418 0 00-2.416 2.415v1.172a2.418 2.418 0 002.415 2.415h7.121v1.551H40.374v-1.713a2.418 2.418 0 00-2.416-2.415zM4.817 32.643c0-2.456 2.74-3.992 4.841-2.609v3.827a4.666 4.666 0 00-1.445 1.895 3.128 3.128 0 01-3.396-3.113zm8.018 11.484h3.962c.325 0 .599.274.599.599v1.172a.607.607 0 01-.599.599h-3.962c.049-.192.078-.392.078-.6v-1.171c0-.207-.03-.407-.078-.6zm-1.739.599v1.172a.607.607 0 01-.597.599h-.986a.609.609 0 01-.599-.6v-1.171a.61.61 0 01.6-.6h.984c.324 0 .598.275.598.6zm35.638-11.841h-1.351c-.125-4.241-3.611-7.654-7.882-7.654-4.271 0-7.758 3.413-7.882 7.654H14.614V23.25a2.972 2.972 0 012.97-2.969h26.181a2.972 2.972 0 012.97 2.969v9.635h0zm-12.168 0a2.948 2.948 0 012.934-2.71 2.948 2.948 0 012.935 2.71h-5.869zm2.935-4.526a4.767 4.767 0 00-4.755 4.526h-1.313a6.08 6.08 0 016.068-5.838 6.08 6.08 0 016.067 5.838h-1.312A4.766 4.766 0 0037.5 28.36zm11.013 18.138h-3.963a.607.607 0 01-.598-.6v-1.171c0-.325.274-.6.598-.6h3.963c-.05.193-.078.393-.078.6v1.172c0 .207.029.407.078.599zm1.738-.6v-1.171c0-.325.275-.6.6-.6h.984a.609.609 0 01.599.6v1.172a.61.61 0 01-.6.599h-.985a.607.607 0 01-.598-.6zM11.475 23.252a6.115 6.115 0 016.108-6.109h26.182a6.115 6.115 0 016.109 6.109v9.751a5.134 5.134 0 00-.454-.079c-.377-.047-.573-.035-.87-.037V23.25a4.79 4.79 0 00-4.785-4.785H17.583a4.79 4.79 0 00-4.785 4.785v9.635c-.383.007-.752-.014-1.323.116V23.25zM5.724 2.487c0-.37.3-.67.67-.67h48.56c.37 0 .671.3.671.67v1.479H5.724v-1.48zm0 42.451v-7.876a5.003 5.003 0 002.136.524v5.384l-.004.005a2.408 2.408 0 00-.758 1.752v.881h-.704a.67.67 0 01-.67-.67zm1.994 8.699V52.12c0-.238.201-.44.44-.44H23.33v2.395H8.157a.445.445 0 01-.439-.44zm10.813 5.803c0 .41-.333.744-.743.744H10.48a.744.744 0 01-.743-.744v-3.548h8.794v3.548h0zm6.994-10.12c-.538 0-1.059.199-1.464.545h-1.27v-1.713c0-.324.275-.599.6-.599h14.567c.325 0 .6.275.6.6v1.712h-1.33c-.718-.616-1.489-.538-1.525-.544H25.525zm26.087 10.12c0 .41-.334.744-.743.744H43.56a.744.744 0 01-.743-.744v-3.548h8.794v3.548h0zm2.018-7.32v1.517c0 .238-.2.439-.439.439H38.02v-2.394h15.172c.238 0 .44.2.44.439zm1.995-7.182c0 .37-.3.67-.67.67h-.704v-.881c0-.69-.293-1.312-.758-1.752l-.004-.005v-5.384a5.003 5.003 0 002.136-.523v7.875z" fill="#CB8734" stroke="#fff" stroke-width=".2" mask="url(#path-2-inside-1)"/></svg>