<svg width="62" height="62" fill="none" xmlns="http://www.w3.org/2000/svg"><path opacity=".58" fill="#fff" d="M0 0h62v62H0z"/><mask id="path-2-inside-1" fill="#fff"><path d="M16.2 19.984H7.745a2.027 2.027 0 00-2.018 2.019v23.5a.908.908 0 11-1.816 0v-23.5c0-1.054.432-2.012 1.126-2.709a3.829 3.829 0 012.708-1.126H16.2v-4.826c0-.501.408-.91.91-.91.5 0 .91.409.91.91V41.49h27.372V4.475l-2.743-2.371-3.055 2.646a.9.9 0 01-1.195-.01l-3.048-2.637-3.055 2.647a.9.9 0 01-1.195-.01l-3.045-2.637-3.058 2.647a.9.9 0 01-1.195-.01l-3.045-2.637-2.739 2.372v4.751c0 .501-.408.91-.91.91a.911.911 0 01-.91-.91V4.067a.91.91 0 01.317-.687L20.154.23A.908.908 0 0121.35.218l3.058 2.65 3.045-2.64a.908.908 0 011.194-.01l3.06 2.65L34.75.229a.908.908 0 011.194-.01L39 2.869l3.045-2.64a.913.913 0 011.198-.01l3.594 3.117c.223.165.37.429.37.731v14.101h7.827c1.054 0 2.015.433 2.708 1.126a3.83 3.83 0 011.126 2.709v30.822h.261c.542 0 1.01.096 1.397.27.402.186.714.454.93.794.213.34.323.73.323 1.16 0 .432-.117.913-.347 1.421l-1.48 3.24c-.315.694-.69 1.246-1.204 1.645-.55.422-1.205.645-2.046.645H6.077c-.84 0-1.496-.223-2.046-.645-.515-.398-.889-.951-1.205-1.644l-1.48-3.24C1.114 55.96 1 55.484 1 55.051c0-.432.11-.824.323-1.163a2.13 2.13 0 01.93-.793c.388-.175.855-.271 1.397-.271h.261v-3.207a.909.909 0 111.816 0v3.207h17.585c.502 0 .91.405.91.906 0 .443.182.844.474 1.136a1.6 1.6 0 001.133.474H36.95a1.6 1.6 0 001.132-.474c.292-.292.474-.693.474-1.136 0-.501.408-.906.91-.906h17.585V22.003a2.026 2.026 0 00-2.018-2.018h-7.827v1.74h7.827c.501 0 .906.405.906.906v4.116a.908.908 0 11-1.816 0V23.54h-6.917v14.38h1.549a2.67 2.67 0 012.663 2.663v3.629c0 .734-.298 1.4-.779 1.884-.484.481-1.15.78-1.884.78H14.652c-.735 0-1.4-.299-1.881-.78a2.657 2.657 0 01-.783-1.884v-3.629c0-.73.299-1.396.783-1.88a2.657 2.657 0 011.88-.783h1.55V23.54H9.282v25.728h44.841V30.862a.91.91 0 111.816 0v19.316a.905.905 0 01-.906.906H8.374a.905.905 0 01-.907-.906V22.631c0-.501.405-.906.907-.906H16.2v-1.74zm6.045 12.437a.905.905 0 01-.906-.906c0-.505.405-.91.906-.91h18.917a.909.909 0 110 1.816H22.245zm0 7.023a.905.905 0 01-.906-.906c0-.505.405-.91.906-.91h14.822c.501 0 .906.405.906.91a.905.905 0 01-.906.906H22.245zm0-3.512a.905.905 0 01-.906-.906c0-.504.405-.91.906-.91h18.917a.91.91 0 110 1.816H22.245zM35.344 10.74a.907.907 0 01-1.212 1.349c-.003-.003-.594-.546-1.617-.728v5.444c.337.13.694.261 1.068.392 1.558.552 2.499 1.603 2.914 2.818.261.772.306 1.606.151 2.41a5.27 5.27 0 01-.999 2.22 5.024 5.024 0 01-3.134 1.895v1.404a.906.906 0 01-.91.907.905.905 0 01-.906-.907V26.61a6.906 6.906 0 01-1.404-.182c-.71-.175-1.373-.484-2.217-1.036a.908.908 0 01.995-1.521c.666.436 1.16.676 1.658.796.295.076.608.114.968.13v-6.772c-.8-.354-1.606-.765-2.296-1.305a3.303 3.303 0 01-1.12-1.668 4.2 4.2 0 01-.082-2.015 4.491 4.491 0 01.862-1.891 4.03 4.03 0 012.029-1.39c.206-.062.408-.114.607-.151V8.337a.908.908 0 111.816 0v1.198c1.758.216 2.826 1.202 2.829 1.205zm-4.644.728l-.093.024c-.47.144-.845.419-1.116.769a2.633 2.633 0 00-.508 1.122 2.4 2.4 0 00.038 1.15c.093.306.258.574.494.759.323.254.718.494 1.185.728v-4.552zm1.816 7.274v5.945a3.243 3.243 0 001.699-1.146c.333-.433.556-.934.652-1.45a2.942 2.942 0 00-.09-1.495c-.384-1.13-1.242-1.484-2.261-1.854zm14.691 20.994V42.4a.908.908 0 01-.91.906H17.11a.908.908 0 01-.91-.906v-2.664h-1.548a.842.842 0 00-.598.25.847.847 0 00-.25.598v3.628a.849.849 0 00.848.848h34.103a.847.847 0 00.848-.848v-3.628a.848.848 0 00-.25-.597.835.835 0 00-.598-.251h-1.548zM6.077 60.18h50.625c.416 0 .718-.09.937-.26.258-.2.47-.526.67-.962l1.476-3.24c.085-.183.26-.67.137-.866-.12-.189-.6-.212-.793-.212H40.253a3.419 3.419 0 01-.886 1.51 3.404 3.404 0 01-2.417 1.006H25.828c-.94 0-1.798-.385-2.42-1.006a3.46 3.46 0 01-.882-1.51H3.65c-.192 0-.673.023-.793.212-.123.196.052.683.138.865l1.475 3.24c.2.437.412.763.666.962.224.172.526.26.941.26z"/></mask><path d="M16.2 19.984H7.745a2.027 2.027 0 00-2.018 2.019v23.5a.908.908 0 11-1.816 0v-23.5c0-1.054.432-2.012 1.126-2.709a3.829 3.829 0 012.708-1.126H16.2v-4.826c0-.501.408-.91.91-.91.5 0 .91.409.91.91V41.49h27.372V4.475l-2.743-2.371-3.055 2.646a.9.9 0 01-1.195-.01l-3.048-2.637-3.055 2.647a.9.9 0 01-1.195-.01l-3.045-2.637-3.058 2.647a.9.9 0 01-1.195-.01l-3.045-2.637-2.739 2.372v4.751c0 .501-.408.91-.91.91a.911.911 0 01-.91-.91V4.067a.91.91 0 01.317-.687L20.154.23A.908.908 0 0121.35.218l3.058 2.65 3.045-2.64a.908.908 0 011.194-.01l3.06 2.65L34.75.229a.908.908 0 011.194-.01L39 2.869l3.045-2.64a.913.913 0 011.198-.01l3.594 3.117c.223.165.37.429.37.731v14.101h7.827c1.054 0 2.015.433 2.708 1.126a3.83 3.83 0 011.126 2.709v30.822h.261c.542 0 1.01.096 1.397.27.402.186.714.454.93.794.213.34.323.73.323 1.16 0 .432-.117.913-.347 1.421l-1.48 3.24c-.315.694-.69 1.246-1.204 1.645-.55.422-1.205.645-2.046.645H6.077c-.84 0-1.496-.223-2.046-.645-.515-.398-.889-.951-1.205-1.644l-1.48-3.24C1.114 55.96 1 55.484 1 55.051c0-.432.11-.824.323-1.163a2.13 2.13 0 01.93-.793c.388-.175.855-.271 1.397-.271h.261v-3.207a.909.909 0 111.816 0v3.207h17.585c.502 0 .91.405.91.906 0 .443.182.844.474 1.136a1.6 1.6 0 001.133.474H36.95a1.6 1.6 0 001.132-.474c.292-.292.474-.693.474-1.136 0-.501.408-.906.91-.906h17.585V22.003a2.026 2.026 0 00-2.018-2.018h-7.827v1.74h7.827c.501 0 .906.405.906.906v4.116a.908.908 0 11-1.816 0V23.54h-6.917v14.38h1.549a2.67 2.67 0 012.663 2.663v3.629c0 .734-.298 1.4-.779 1.884-.484.481-1.15.78-1.884.78H14.652c-.735 0-1.4-.299-1.881-.78a2.657 2.657 0 01-.783-1.884v-3.629c0-.73.299-1.396.783-1.88a2.657 2.657 0 011.88-.783h1.55V23.54H9.282v25.728h44.841V30.862a.91.91 0 111.816 0v19.316a.905.905 0 01-.906.906H8.374a.905.905 0 01-.907-.906V22.631c0-.501.405-.906.907-.906H16.2v-1.74zm6.045 12.437a.905.905 0 01-.906-.906c0-.505.405-.91.906-.91h18.917a.909.909 0 110 1.816H22.245zm0 7.023a.905.905 0 01-.906-.906c0-.505.405-.91.906-.91h14.822c.501 0 .906.405.906.91a.905.905 0 01-.906.906H22.245zm0-3.512a.905.905 0 01-.906-.906c0-.504.405-.91.906-.91h18.917a.91.91 0 110 1.816H22.245zM35.344 10.74a.907.907 0 01-1.212 1.349c-.003-.003-.594-.546-1.617-.728v5.444c.337.13.694.261 1.068.392 1.558.552 2.499 1.603 2.914 2.818.261.772.306 1.606.151 2.41a5.27 5.27 0 01-.999 2.22 5.024 5.024 0 01-3.134 1.895v1.404a.906.906 0 01-.91.907.905.905 0 01-.906-.907V26.61a6.906 6.906 0 01-1.404-.182c-.71-.175-1.373-.484-2.217-1.036a.908.908 0 01.995-1.521c.666.436 1.16.676 1.658.796.295.076.608.114.968.13v-6.772c-.8-.354-1.606-.765-2.296-1.305a3.303 3.303 0 01-1.12-1.668 4.2 4.2 0 01-.082-2.015 4.491 4.491 0 01.862-1.891 4.03 4.03 0 012.029-1.39c.206-.062.408-.114.607-.151V8.337a.908.908 0 111.816 0v1.198c1.758.216 2.826 1.202 2.829 1.205zm-4.644.728l-.093.024c-.47.144-.845.419-1.116.769a2.633 2.633 0 00-.508 1.122 2.4 2.4 0 00.038 1.15c.093.306.258.574.494.759.323.254.718.494 1.185.728v-4.552zm1.816 7.274v5.945a3.243 3.243 0 001.699-1.146c.333-.433.556-.934.652-1.45a2.942 2.942 0 00-.09-1.495c-.384-1.13-1.242-1.484-2.261-1.854zm14.691 20.994V42.4a.908.908 0 01-.91.906H17.11a.908.908 0 01-.91-.906v-2.664h-1.548a.842.842 0 00-.598.25.847.847 0 00-.25.598v3.628a.849.849 0 00.848.848h34.103a.847.847 0 00.848-.848v-3.628a.848.848 0 00-.25-.597.835.835 0 00-.598-.251h-1.548zM6.077 60.18h50.625c.416 0 .718-.09.937-.26.258-.2.47-.526.67-.962l1.476-3.24c.085-.183.26-.67.137-.866-.12-.189-.6-.212-.793-.212H40.253a3.419 3.419 0 01-.886 1.51 3.404 3.404 0 01-2.417 1.006H25.828c-.94 0-1.798-.385-2.42-1.006a3.46 3.46 0 01-.882-1.51H3.65c-.192 0-.673.023-.793.212-.123.196.052.683.138.865l1.475 3.24c.2.437.412.763.666.962.224.172.526.26.941.26z" fill="#CB8734" stroke="#fff" stroke-width=".4" mask="url(#path-2-inside-1)"/></svg>